<?xml version="1.0" standalone="no"?>
<svg xmlns:xlink="http://www.w3.org/1999/xlink" id="wave" style="transform:rotate(180deg); transition: 0.3s" viewBox="0 0 1440 120" version="1.1" xmlns="http://www.w3.org/2000/svg"><defs><linearGradient id="sw-gradient-0" x1="0" x2="0" y1="1" y2="0"><stop stop-color="rgba(255, 249, 234, 1)" offset="0%"/><stop stop-color="rgba(255, 249, 234, 1)" offset="100%"/></linearGradient></defs><path style="transform:translate(0, 0px); opacity:1" fill="url(#sw-gradient-0)" d="M0,48L40,50C80,52,160,56,240,60C320,64,400,68,480,62C560,56,640,40,720,46C800,52,880,80,960,84C1040,88,1120,68,1200,68C1280,68,1360,88,1440,86C1520,84,1600,60,1680,56C1760,52,1840,68,1920,76C2000,84,2080,84,2160,78C2240,72,2320,60,2400,58C2480,56,2560,64,2640,72C2720,80,2800,88,2880,78C2960,68,3040,40,3120,28C3200,16,3280,20,3360,24C3440,28,3520,32,3600,34C3680,36,3760,36,3840,30C3920,24,4000,12,4080,20C4160,28,4240,56,4320,58C4400,60,4480,36,4560,36C4640,36,4720,60,4800,66C4880,72,4960,60,5040,54C5120,48,5200,48,5280,40C5360,32,5440,16,5520,14C5600,12,5680,24,5720,30L5760,36L5760,120L5720,120C5680,120,5600,120,5520,120C5440,120,5360,120,5280,120C5200,120,5120,120,5040,120C4960,120,4880,120,4800,120C4720,120,4640,120,4560,120C4480,120,4400,120,4320,120C4240,120,4160,120,4080,120C4000,120,3920,120,3840,120C3760,120,3680,120,3600,120C3520,120,3440,120,3360,120C3280,120,3200,120,3120,120C3040,120,2960,120,2880,120C2800,120,2720,120,2640,120C2560,120,2480,120,2400,120C2320,120,2240,120,2160,120C2080,120,2000,120,1920,120C1840,120,1760,120,1680,120C1600,120,1520,120,1440,120C1360,120,1280,120,1200,120C1120,120,1040,120,960,120C880,120,800,120,720,120C640,120,560,120,480,120C400,120,320,120,240,120C160,120,80,120,40,120L0,120Z"/></svg>